<?xml version="1.0" standalone="no"?>
<!DOCTYPE svg PUBLIC "-//W3C//DTD SVG 1.1//EN" "http://www.w3.org/Graphics/SVG/1.1/DTD/svg11.dtd" >
<svg xmlns="http://www.w3.org/2000/svg">
<metadata>
This is a custom SVG webfont generated by Font Squirrel.
Copyright   : c 19992011 Typodermic Fonts wwwtypodermiccomlicensehtml  Design Ray Larabie Languages  kerning Chikako Larabie
Designer    : Ray Larabie
Foundry     : Ray Larabie
</metadata>
<defs>
<font id="NeuropoliticalRegular" horiz-adv-x="1818" >
<font-face units-per-em="2048" ascent="1597" descent="-451" />
<missing-glyph horiz-adv-x="813" />
<glyph unicode=" "  horiz-adv-x="813" />
<glyph unicode="&#x09;" horiz-adv-x="813" />
<glyph unicode="&#xa0;" horiz-adv-x="813" />
<glyph unicode="!" horiz-adv-x="581" d="M135 92v119q0 49 24.5 71.5t80.5 22.5h100q55 0 79.5 -22.5t24.5 -71.5v-119q0 -49 -23.5 -70.5t-80.5 -21.5h-100q-57 0 -81 21.5t-24 70.5zM135 424v973h309v-973h-309z" />
<glyph unicode="&#x22;" horiz-adv-x="856" d="M86 1473h276l-34 -541h-211zM494 1473h276l-35 -541h-211z" />
<glyph unicode="#" horiz-adv-x="1347" d="M49 328l29 200h215l45 328h-219l28 201h218l47 340h202l-47 -340h312l47 340h198l-47 -340h217l-26 -201h-219l-43 -328h217l-27 -200h-219l-45 -328h-199l45 328h-311l-45 -328h-201l43 328h-215zM494 528h313l43 328h-311z" />
<glyph unicode="$" horiz-adv-x="1710" d="M113 0v260h643v328h-232q-238 0 -323.5 74.5t-85.5 271.5v70q0 227 95 310t325 83h221v102h219v-680h203q244 0 340 -80t96 -288v-89q0 -197 -96.5 -279.5t-327.5 -82.5h-215v-150h-219v150h-643zM393 954q0 -80 30 -107.5t118 -27.5h215v316h-207q-94 0 -125 -29 t-31 -117v-35zM975 260h203q94 0 125.5 29.5t31.5 111.5v48q0 82 -33.5 110.5t-136.5 28.5h-190v-328z" />
<glyph unicode="%" horiz-adv-x="2148" d="M106 958v220q0 133 57.5 186t213.5 53h276q156 0 214.5 -53t58.5 -186v-220q0 -133 -58.5 -186t-214.5 -53h-276q-156 0 -213.5 53t-57.5 186zM297 971q0 -51 19.5 -69.5t74.5 -18.5h250q53 0 72.5 18.5t19.5 69.5v192q0 51 -19.5 69.5t-72.5 18.5h-250 q-55 0 -74.5 -18.5t-19.5 -69.5v-192zM459 0l981 1397h237l-981 -1397h-237zM1223 219v219q0 133 57 186.5t213 53.5h276q156 0 214.5 -53.5t58.5 -186.5v-219q0 -133 -58.5 -186t-214.5 -53h-276q-156 0 -213 53t-57 186zM1413 231q0 -51 19.5 -69.5t74.5 -18.5h250 q53 0 72.5 18.5t19.5 69.5v193q0 51 -19.5 69.5t-72.5 18.5h-250q-55 0 -74.5 -18.5t-19.5 -69.5v-193z" />
<glyph unicode="&#x26;" horiz-adv-x="1904" d="M90 309v131q0 143 64.5 211t240.5 107q-90 55 -127 108.5t-37 128.5v144q0 133 84 195.5t260 62.5h469q369 0 369 -281v-90q0 -225 -239 -283l-287 -69l489 -312q59 80 60 236v82h270v-88q0 -229 -113 -373l336 -219h-385l-123 80q-150 -80 -471 -80h-432 q-223 0 -325.5 85t-102.5 224zM391 344q0 -51 33 -75.5t111 -24.5h469q92 0 155 14l-538 348q-143 -29 -186.5 -58.5t-43.5 -113.5v-90zM496 1028q0 -63 15 -92t71 -64l77 -49l377 88q53 12 72.5 32t19.5 71v73q0 43 -27.5 60.5t-94.5 17.5h-404q-59 0 -82.5 -20.5 t-23.5 -71.5v-45z" />
<glyph unicode="'" horiz-adv-x="448" d="M86 1473h276l-34 -541h-211z" />
<glyph unicode="(" horiz-adv-x="735" d="M217 -51v1403q0 182 110.5 290.5t317.5 108.5h64v-164h-66q-223 0 -223 -233v-1409q0 -233 223 -234h66v-162h-64q-207 0 -317.5 109t-110.5 291z" />
<glyph unicode=")" horiz-adv-x="735" d="M217 -289h66q223 0 223 234v1409q0 233 -223 233h-66v164h64q207 0 317.5 -108.5t110.5 -290.5v-1403q0 -182 -111 -291t-317 -109h-64v162z" />
<glyph unicode="*" horiz-adv-x="1161" d="M70 1120l55 172l377 -139l-15 403h183l-17 -403l377 139l57 -172l-385 -112l244 -312l-145 -106l-221 328l-224 -328q-23 14 -47 31.5t-54 39t-46 33.5l246 314z" />
<glyph unicode="+" horiz-adv-x="1208" d="M121 623v200h383v383h201v-383h382v-200h-382v-383h-201v383h-383z" />
<glyph unicode="," horiz-adv-x="481" d="M84 -150l47 500h299l-119 -500h-227z" />
<glyph unicode="-" horiz-adv-x="811" d="M68 532v242h675v-242h-675z" />
<glyph unicode="." horiz-adv-x="552" d="M121 92v168q0 49 24.5 70.5t79.5 21.5h101q57 0 81.5 -21.5t24.5 -70.5v-168q0 -49 -24.5 -70.5t-81.5 -21.5h-101q-57 0 -80.5 21.5t-23.5 70.5z" />
<glyph unicode="/" horiz-adv-x="1044" d="M8 -207l785 1675h243l-782 -1675h-246z" />
<glyph unicode="0" horiz-adv-x="1832" d="M111 479v439q0 268 113.5 373.5t418.5 105.5h545q305 0 419.5 -105.5t114.5 -373.5v-439q0 -268 -114.5 -373.5t-419.5 -105.5h-545q-305 0 -418.5 105.5t-113.5 373.5zM420 492q0 -137 45 -181.5t192 -44.5h519q139 0 187 45t48 181v411q0 131 -49 178t-186 47h-519 q-145 0 -191 -46t-46 -179v-411z" />
<glyph unicode="1" horiz-adv-x="552" d="M121 0v1397h311v-1397h-311z" />
<glyph unicode="2" horiz-adv-x="1878" d="M100 0v444q0 207 91.5 294t345.5 87h806q80 0 109 28t29 105v35q0 82 -27 111t-102 29h-512v264h532q209 0 302 -91.5t93 -304.5v-69q0 -195 -87 -268.5t-316 -73.5h-813q-96 0 -131 -33t-35 -125v-168h1382v-264h-1667z" />
<glyph unicode="3" horiz-adv-x="1849" d="M92 0v258h1208q92 0 129 22.5t37 86.5v82q0 84 -33.5 112.5t-121.5 28.5h-1211v235h1203q82 0 112.5 26t30.5 95v86q0 61 -37 84t-137 23h-441v258h449q250 0 354.5 -75t104.5 -253v-104q0 -205 -154 -248q84 -20 128 -85t44 -206v-113q0 -170 -102.5 -241.5 t-347.5 -71.5h-1215z" />
<glyph unicode="4" horiz-adv-x="1980" d="M111 391v1006h305v-740h1102v740h303v-1397h-303v391h-1407z" />
<glyph unicode="5" horiz-adv-x="1929" d="M121 610v787h1014v-264h-729v-281h985q236 0 335 -82t99 -276v-125q0 -199 -99.5 -284t-334.5 -85h-1268v264h1239q104 0 141 25.5t37 97.5v90q0 68 -36 100.5t-130 32.5h-1253z" />
<glyph unicode="6" horiz-adv-x="1933" d="M111 479v439q0 268 113.5 373.5t418.5 105.5h442v-264h-432q-135 0 -184 -44.5t-49 -170.5v-70h1028q205 0 295 -97.5t90 -283.5v-86q0 -197 -89 -289t-296 -92h-805q-305 0 -418.5 105.5t-113.5 373.5zM420 473q0 -135 55 -174t236 -39h680q70 0 101.5 32t31.5 101v78 q0 80 -30 111.5t-103 31.5h-971v-141z" />
<glyph unicode="7" horiz-adv-x="1851" d="M63 1126v271h1547q78 0 122 -40t44 -104q0 -74 -62 -147l-907 -1106h-399l950 1126h-1295z" />
<glyph unicode="8" horiz-adv-x="1847" d="M98 313v113q0 139 45 204.5t127 86.5q-154 43 -153 248v104q0 178 104.5 253t356.5 75h692q250 0 354.5 -75t104.5 -253v-104q0 -115 -39 -171.5t-113 -76.5q82 -20 126 -85t44 -206v-113q0 -170 -102.5 -241.5t-348.5 -71.5h-745q-246 0 -349.5 71.5t-103.5 241.5z M391 369q0 -68 41 -88.5t148 -20.5h688q104 0 146 20.5t42 88.5v82q0 84 -33.5 115.5t-119.5 31.5h-758q-86 0 -120 -31.5t-34 -115.5v-82zM410 944q0 -70 31.5 -98.5t111.5 -28.5h741q80 0 112 28.5t32 98.5v86q0 66 -42 86.5t-157 20.5h-631q-117 0 -157.5 -20.5 t-40.5 -86.5v-86z" />
<glyph unicode="9" horiz-adv-x="1921" d="M90 911v103q0 197 90 290t297 93h801q303 0 417.5 -101.5t114.5 -347.5v-469q0 -268 -113.5 -373.5t-418.5 -105.5h-438v260h428q135 0 184 44t49 171v55h-1024q-387 0 -387 381zM401 907q0 -78 29 -109.5t105 -31.5h966v176q0 119 -41 155t-182 36h-743q-70 0 -102 -33 t-32 -103v-90z" />
<glyph unicode=":" horiz-adv-x="552" d="M121 92v168q0 49 24.5 70.5t79.5 21.5h101q57 0 81.5 -21.5t24.5 -70.5v-168q0 -49 -24.5 -70.5t-81.5 -21.5h-101q-57 0 -80.5 21.5t-23.5 70.5zM121 829v166q0 49 24.5 72t79.5 23h101q57 0 81.5 -23t24.5 -72v-166q0 -49 -24.5 -71.5t-81.5 -22.5h-101 q-55 0 -79.5 22.5t-24.5 71.5z" />
<glyph unicode=";" horiz-adv-x="552" d="M86 -150l47 500h299l-119 -500h-227zM119 829v166q0 49 24.5 72t79.5 23h103q55 0 79.5 -23t24.5 -72v-166q0 -49 -24.5 -71.5t-79.5 -22.5h-103q-55 0 -79.5 22.5t-24.5 71.5z" />
<glyph unicode="&#x3c;" horiz-adv-x="1208" d="M121 674q0 80 92 133l874 481v-231l-710 -383l710 -387v-232l-874 484q-92 49 -92 135z" />
<glyph unicode="=" horiz-adv-x="1208" d="M121 373v198h966v-198h-966zM121 874v201h966v-201h-966z" />
<glyph unicode="&#x3e;" horiz-adv-x="1208" d="M121 55v232l710 387l-710 383v231l874 -481q92 -53 92 -133q0 -86 -92 -135z" />
<glyph unicode="?" horiz-adv-x="1218" d="M102 92v119q0 49 25 71.5t80 22.5h100q57 0 82 -22.5t25 -71.5v-119q0 -49 -24.5 -70.5t-82.5 -21.5h-100q-57 0 -81 21.5t-24 70.5zM102 424v86q0 158 77 225.5t270 67.5h299q66 0 96 29.5t30 105.5v57q0 78 -31.5 109t-105.5 31h-307v262h328q213 0 307 -90t94 -299 v-78q0 -193 -81 -272.5t-300 -79.5h-282q-51 0 -70.5 -21.5t-19.5 -73.5v-59h-304z" />
<glyph unicode="@" horiz-adv-x="1515" d="M121 -4v987q0 182 77.5 255t284.5 73h576q207 0 282.5 -73t75.5 -255v-530q0 -182 -77.5 -254t-286.5 -72h-113q-207 0 -283.5 70.5t-76.5 255.5v98q0 184 76.5 256t283.5 72h252v96q0 76 -28.5 103.5t-112.5 27.5h-562q-78 0 -108.5 -29.5t-30.5 -105.5v-959 q0 -80 33 -111.5t115 -31.5h315v-201h-330q-207 0 -284.5 73t-77.5 255zM807 457q0 -78 31.5 -108t113.5 -30h90q82 0 116 31t34 107v223h-240q-84 0 -114.5 -28.5t-30.5 -106.5v-88z" />
<glyph unicode="A" horiz-adv-x="2119" d="M16 0l811 1290q41 68 94.5 102.5t141.5 34.5q86 0 139 -34.5t94 -102.5l807 -1290h-360l-203 322h-967l-198 -322h-359zM719 561h676l-338 551z" />
<glyph unicode="B" horiz-adv-x="1837" d="M119 0v1397h1177q240 0 340.5 -72t100.5 -246v-114q0 -115 -39 -171.5t-113 -76.5q84 -16 127 -81t43 -210v-123q0 -166 -100.5 -234.5t-337.5 -68.5h-1198zM430 254h870q90 0 127 24.5t37 88.5v86q0 84 -33.5 113.5t-119.5 29.5h-881v-342zM430 821h873q82 0 112.5 26.5 t30.5 96.5v88q0 63 -38 87t-136 24h-842v-322z" />
<glyph unicode="C" horiz-adv-x="1691" d="M111 479v439q0 268 113.5 373.5t418.5 105.5h969v-269h-955q-141 0 -189 -48t-48 -179v-409q0 -131 48 -178.5t191 -47.5h953v-266h-969q-305 0 -418.5 105.5t-113.5 373.5z" />
<glyph unicode="D" horiz-adv-x="1873" d="M121 0v1397h1106q307 0 421.5 -105.5t114.5 -373.5v-439q0 -268 -114.5 -373.5t-421.5 -105.5h-1106zM432 266h782q129 0 183.5 47t54.5 176v414q0 129 -50 177t-188 48h-782v-862z" />
<glyph unicode="E" horiz-adv-x="1697" d="M111 479v439q0 268 113.5 373.5t418.5 105.5h344v-264h-344q-133 0 -178 -46.5t-45 -168.5v-95h1190v-248h-1190v-98q0 -127 44 -170t179 -43h975v-264h-975q-305 0 -418.5 105.5t-113.5 373.5z" />
<glyph unicode="F" horiz-adv-x="1648" d="M115 0v918q0 268 113.5 373.5t418.5 105.5h328v-269h-320q-127 0 -179 -53t-52 -176v-111h1178v-264h-1178v-524h-309z" />
<glyph unicode="G" horiz-adv-x="1826" d="M111 479v439q0 268 113.5 373.5t418.5 105.5h365v-269h-351q-139 0 -188 -48t-49 -177v-411q0 -135 49 -180.5t188 -45.5h527q135 0 185 46t50 192v323h312v-348q0 -268 -115 -373.5t-422 -105.5h-551q-305 0 -418.5 105.5t-113.5 373.5z" />
<glyph unicode="H" horiz-adv-x="1886" d="M121 0v1397h311v-570h1024v570h309v-1397h-309v557h-1024v-557h-311z" />
<glyph unicode="I" horiz-adv-x="559" d="M123 0v1397h311v-1397h-311z" />
<glyph unicode="J" horiz-adv-x="1048" d="M35 0v266h338q147 0 198.5 50.5t51.5 177.5v903h311v-918q0 -268 -114.5 -373.5t-422.5 -105.5h-362z" />
<glyph unicode="K" horiz-adv-x="1642" d="M121 0v1397h309v-668l762 668h420l-799 -678l821 -719h-426l-778 682v-682h-309z" />
<glyph unicode="L" horiz-adv-x="1544" d="M115 479v918h309v-905q0 -125 53 -175.5t197 -50.5h829v-266h-856q-305 0 -418.5 105.5t-113.5 373.5z" />
<glyph unicode="M" horiz-adv-x="2441" d="M119 0v1300q0 63 46 95t122 32q98 0 147 -65l789 -1047l794 1047q51 66 140 65q76 0 121.5 -31.5t45.5 -95.5v-1300h-286v920l-682 -891q-47 -59 -137.5 -59.5t-137.5 59.5l-680 891v-920h-282z" />
<glyph unicode="N" horiz-adv-x="1867" d="M119 0v1298q0 63 45 96t121 33q94 0 145 -51l1026 -989v1010h295v-1299q0 -129 -156 -129q-102 0 -170 66l-1017 958v-993h-289z" />
<glyph unicode="O" d="M111 479v439q0 268 113.5 373.5t418.5 105.5h531q305 0 419.5 -105.5t114.5 -373.5v-439q0 -268 -114.5 -373.5t-419.5 -105.5h-531q-305 0 -418.5 105.5t-113.5 373.5zM420 492q0 -137 45 -181.5t192 -44.5h504q139 0 187.5 45t48.5 181v411q0 131 -49.5 178t-186.5 47 h-504q-145 0 -191 -46t-46 -179v-411z" />
<glyph unicode="P" horiz-adv-x="1837" d="M121 0v1397h1118q297 0 410.5 -100.5t113.5 -350.5v-121q0 -250 -108.5 -338t-415.5 -88h-807v-399h-311zM432 651h803q125 0 171 39t46 148v96q0 113 -47 153.5t-174 40.5h-799v-477z" />
<glyph unicode="Q" d="M109 485v433q0 268 114.5 373.5t419.5 105.5h531q305 0 419.5 -105.5t114.5 -373.5v-433q0 -158 -37 -254t-123 -147l264 -285h-382l-201 215h-586q-307 0 -420.5 102.5t-113.5 368.5zM420 547q0 -172 41 -223.5t196 -51.5h504q139 0 187.5 45t48.5 181v405 q0 131 -49.5 178t-186.5 47h-504q-145 0 -191 -46t-46 -179v-356z" />
<glyph unicode="R" horiz-adv-x="1859" d="M119 0v1397h1093q303 0 427 -88t124 -332v-96q0 -233 -128 -320.5t-427 -87.5h-245l819 -473h-537l-817 508v-508h-309zM428 709h764q156 0 208 32.5t52 143.5v76q0 109 -51 141.5t-209 32.5h-764v-426z" />
<glyph unicode="S" horiz-adv-x="1656" d="M80 0v264h1061q86 0 121.5 25.5t35.5 93.5v76q0 66 -36.5 93.5t-118.5 27.5h-666q-227 0 -311 82.5t-84 271.5v70q0 213 92 303t303 90h434v-264h-405q-74 0 -106.5 -30t-32.5 -110v-45q0 -66 30.5 -93.5t106.5 -27.5h653q231 0 328.5 -81.5t97.5 -272.5v-111 q0 -197 -97 -279.5t-329 -82.5h-1077z" />
<glyph unicode="T" horiz-adv-x="1564" d="M39 1128v269h1485v-269h-586v-1128h-313v1128h-586z" />
<glyph unicode="U" d="M115 479v918h313v-908q0 -127 54.5 -175t195.5 -48h469q141 0 195.5 48t54.5 178v905h309v-918q0 -268 -114.5 -373.5t-420.5 -105.5h-524q-305 0 -418.5 105.5t-113.5 373.5z" />
<glyph unicode="V" horiz-adv-x="2099" d="M14 1397h377l662 -1080l659 1080h371l-807 -1295q-41 -68 -92 -100.5t-137 -32.5t-137.5 32t-92.5 101z" />
<glyph unicode="W" horiz-adv-x="2754" d="M18 1397h347l409 -1010l416 916q31 70 72 97t116.5 27t118.5 -27.5t72 -96.5l399 -916l424 1010h340l-571 -1295q-59 -133 -185 -133q-137 0 -196 133l-406 902l-428 -902q-66 -133 -198 -133q-131 0 -187 133z" />
<glyph unicode="X" horiz-adv-x="2066" d="M16 0l803 723l-758 674h449l532 -496l562 496h424l-760 -672l784 -725h-453l-575 535l-573 -535h-435z" />
<glyph unicode="Y" horiz-adv-x="1972" d="M8 1397h420l563 -498l574 498h397l-823 -742v-655h-312v659z" />
<glyph unicode="Z" horiz-adv-x="1726" d="M74 137q0 78 63 133l1000 858h-1031v269h1373q63 0 99 -41t36 -103q0 -76 -60 -129l-979 -858h1076v-266h-1442q-63 0 -99 38t-36 99z" />
<glyph unicode="[" horiz-adv-x="743" d="M217 -451v2202h498v-162h-295v-1878h295v-162h-498z" />
<glyph unicode="\" horiz-adv-x="1044" d="M8 1468h244l784 -1675h-248z" />
<glyph unicode="]" horiz-adv-x="743" d="M217 -289h295v1878h-295v162h498v-2202h-498v162z" />
<glyph unicode="^" horiz-adv-x="1269" d="M57 459l437 870q47 98 139 98q94 0 141 -98l436 -870h-245l-332 671l-332 -671h-244z" />
<glyph unicode="_" horiz-adv-x="1372" d="M-4 -82h1382v-203h-1382v203z" />
<glyph unicode="`" horiz-adv-x="819" d="M121 1702h319l258 -447h-254z" />
<glyph unicode="a" horiz-adv-x="1716" d="M94 293v104q0 150 83 221.5t302 71.5h821v25q0 102 -41.5 140t-146.5 38h-303v217h303q262 0 378 -97.5t116 -312.5v-270q0 -244 -106.5 -337t-399.5 -93h-600q-227 0 -316.5 74t-89.5 219zM397 313q0 -104 125 -104h574q113 0 158.5 40t45.5 159v94h-788 q-57 0 -86 -24.5t-29 -88.5v-76z" />
<glyph unicode="b" horiz-adv-x="1681" d="M115 479v989h305v-358h616q307 0 421 -105.5t114 -375.5v-150q0 -268 -115 -373.5t-420 -105.5h-389q-305 0 -418.5 105.5t-113.5 373.5zM420 485q0 -137 47 -182t190 -45h369q145 0 192.5 46t47.5 183v131q0 143 -47.5 186.5t-192.5 43.5h-606v-363z" />
<glyph unicode="c" horiz-adv-x="1548" d="M111 479v150q0 270 113.5 375.5t418.5 105.5h803v-262h-793q-143 0 -190 -46t-47 -184v-131q0 -133 48 -181t189 -48h795v-258h-805q-305 0 -418.5 105.5t-113.5 373.5z" />
<glyph unicode="d" horiz-adv-x="1681" d="M109 479v150q0 270 114.5 375.5t421.5 105.5h617v358h305v-989q0 -268 -115 -373.5t-420 -105.5h-387q-307 0 -421.5 105.5t-114.5 373.5zM414 487q0 -143 52 -186t218 -43h340q145 0 191.5 45t46.5 182v363h-580q-166 0 -217 -42t-51 -188v-131z" />
<glyph unicode="e" horiz-adv-x="1656" d="M111 422v256q0 246 106.5 339t396.5 93h537q223 0 314 -79t91 -224v-365h-1140v-51q0 -98 36.5 -129t147.5 -31h361v-231h-361q-262 0 -375.5 99.5t-113.5 322.5zM416 639h835v143q0 53 -26.5 72.5t-98.5 19.5h-508q-123 0 -162.5 -30.5t-39.5 -145.5v-59z" />
<glyph unicode="f" horiz-adv-x="886" d="M121 0v1169q0 164 86 231.5t270 67.5h354v-217h-307q-57 0 -77.5 -19.5t-20.5 -72.5v-49h403v-248h-403v-862h-305z" />
<glyph unicode="g" horiz-adv-x="1671" d="M104 498v170q0 256 99.5 349t380.5 93h495q270 0 377 -101.5t107 -340.5v-648q0 -186 -93.5 -269t-300.5 -83h-452v250h424q68 0 96.5 26.5t28.5 92.5v90h-697q-254 0 -359.5 84t-105.5 287zM403 514q0 -88 39 -118.5t146 -30.5h678v297q0 109 -43 148.5t-156 39.5h-479 q-106 0 -145.5 -40t-39.5 -151v-145z" />
<glyph unicode="h" horiz-adv-x="1693" d="M121 0v1468h305v-358h616q307 0 422 -105.5t115 -375.5v-629h-305v618q0 139 -48 184.5t-192 45.5h-608v-848h-305z" />
<glyph unicode="i" horiz-adv-x="552" d="M121 0v1081h311v-1081h-311zM121 1268v118q0 49 23.5 71t80.5 22h101q57 0 81.5 -21.5t24.5 -71.5v-118q0 -49 -24.5 -71.5t-81.5 -22.5h-101q-55 0 -79.5 22.5t-24.5 71.5z" />
<glyph unicode="j" horiz-adv-x="583" d="M-115 -72h68q119 0 162 36t43 138v979h305v-989q0 -223 -116 -323.5t-380 -100.5h-82v260zM152 1268v118q0 49 24.5 71t81.5 22h100q57 0 81 -21.5t24 -71.5v-118q0 -49 -24.5 -71.5t-80.5 -22.5h-100q-57 0 -81.5 22.5t-24.5 71.5z" />
<glyph unicode="k" horiz-adv-x="1497" d="M121 0v1468h307v-872l641 514h397l-690 -535l709 -575h-412l-645 524v-524h-307z" />
<glyph unicode="l" horiz-adv-x="552" d="M121 0v1468h311v-1468h-311z" />
<glyph unicode="m" horiz-adv-x="2279" d="M115 0v713q0 209 91 303t306 94h268q164 0 244 -46t113 -149q31 100 112.5 147.5t241.5 47.5h276q215 0 306.5 -94t91.5 -303v-713h-299v668q0 100 -39 140t-129 40h-199q-135 0 -181 -39t-46 -141v-668h-268v668q0 104 -46.5 142t-183.5 38h-194q-92 0 -130 -39 t-38 -141v-668h-297z" />
<glyph unicode="n" horiz-adv-x="1667" d="M115 0v629q0 270 113.5 375.5t418.5 105.5h371q307 0 420.5 -105.5t113.5 -375.5v-629h-305v618q0 137 -50 183.5t-198 46.5h-331q-145 0 -196.5 -46t-51.5 -184v-618h-305z" />
<glyph unicode="o" horiz-adv-x="1658" d="M111 479v150q0 270 113.5 375.5t418.5 105.5h371q307 0 420.5 -106.5t113.5 -376.5v-148q0 -268 -114.5 -373.5t-419.5 -105.5h-371q-305 0 -418.5 105.5t-113.5 373.5zM416 487q0 -139 53 -184t215 -45h289q166 0 218 45t52 184v131q0 141 -52 185.5t-218 44.5h-289 q-164 0 -216 -44t-52 -186v-131z" />
<glyph unicode="p" horiz-adv-x="1681" d="M113 -332v961q0 270 113.5 375.5t420.5 105.5h389q307 0 421 -105.5t114 -375.5v-150q0 -268 -115 -373.5t-420 -105.5h-618v-332h-305zM418 260h581q164 0 215.5 41t51.5 188v132q0 143 -52.5 186t-216.5 43h-340q-143 0 -191 -45t-48 -182v-363z" />
<glyph unicode="q" horiz-adv-x="1681" d="M109 479v150q0 270 114.5 375.5t421.5 105.5h387q307 0 421 -105.5t114 -375.5v-961h-305v332h-617q-307 0 -421.5 105.5t-114.5 373.5zM414 489q0 -141 47 -185t194 -44h607v363q0 137 -46.5 182t-191.5 45h-340q-166 0 -218 -43t-52 -186v-132z" />
<glyph unicode="r" horiz-adv-x="901" d="M121 0v643q0 250 119.5 358.5t400.5 108.5h199v-248h-191q-129 0 -176 -45t-47 -176v-641h-305z" />
<glyph unicode="s" horiz-adv-x="1509" d="M96 0v240h916q61 0 85.5 21.5t24.5 76.5v37q0 59 -21.5 75.5t-80.5 16.5h-623q-178 0 -238.5 67.5t-60.5 225.5v84q0 147 66.5 206.5t243.5 59.5h421v-231h-348q-45 0 -64.5 -16.5t-19.5 -59.5v-51q0 -45 18.5 -62.5t59.5 -17.5h602q207 0 277.5 -70t70.5 -250v-57 q0 -170 -73.5 -232.5t-300.5 -62.5h-955z" />
<glyph unicode="t" horiz-adv-x="872" d="M29 862v248h155v313h312v-313h350v-248h-350v-862h-312v862h-155z" />
<glyph unicode="u" horiz-adv-x="1658" d="M115 479v631h307v-623q0 -137 53 -182t197 -45h319q152 0 201 44t49 183v623h303v-631q0 -268 -114.5 -373.5t-421.5 -105.5h-361q-305 0 -418.5 105.5t-113.5 373.5z" />
<glyph unicode="v" horiz-adv-x="1918" d="M18 1110h365l582 -850l575 850h361l-732 -1036q-76 -104 -208 -105q-137 0 -211 105z" />
<glyph unicode="w" horiz-adv-x="2258" d="M20 1110h310l319 -748l318 664q31 59 67.5 87t100.5 28q115 0 165 -115l302 -664l335 748h304l-465 -1030q-49 -111 -168 -111q-113 0 -166 111l-314 684l-329 -684q-53 -111 -170 -111t-164 111z" />
<glyph unicode="x" horiz-adv-x="1540" d="M14 0l576 578l-537 532h367l360 -375l369 375h369l-555 -543l561 -567h-381l-375 401l-381 -401h-373z" />
<glyph unicode="y" horiz-adv-x="1695" d="M119 520v590h301v-578q0 -90 40 -126.5t134 -36.5h682v741h297v-1090q0 -186 -93.5 -269t-299.5 -83h-445v250h418q66 0 94.5 25.5t28.5 93.5v90h-701q-246 0 -351 94t-105 299z" />
<glyph unicode="z" horiz-adv-x="1435" d="M74 111q0 61 51 106l786 666h-811v227h1119q53 0 81.5 -34t28.5 -81q0 -61 -47 -102l-762 -662h842v-231h-1182q-49 0 -77.5 33t-28.5 78z" />
<glyph unicode="{" horiz-adv-x="681" d="M25 649q0 96 79 96h25q61 0 87 29t26 100v639q0 131 47 184.5t172 53.5h194v-164h-145q-63 0 -64 -88v-653q0 -90 -30.5 -140.5t-81.5 -56.5q51 -6 81.5 -57t30.5 -139v-652q0 -88 64 -88h145v-164h-194q-125 0 -172 53.5t-47 184.5v637q0 72 -26 99.5t-87 27.5h-25 q-79 0 -79 98z" />
<glyph unicode="|" horiz-adv-x="542" d="M168 -451v2202h205v-2202h-205z" />
<glyph unicode="}" horiz-adv-x="681" d="M25 -287h145q63 0 63 88v652q0 88 31 139t82 57q-51 6 -82 56.5t-31 140.5v653q0 88 -63 88h-145v164h194q125 0 172 -53t47 -185v-639q0 -72 25.5 -100.5t87.5 -28.5h24q80 0 80 -96q0 -98 -80 -98h-24q-61 0 -87 -27.5t-26 -99.5v-637q0 -131 -47 -184.5t-172 -53.5 h-194v164z" />
<glyph unicode="~" horiz-adv-x="1208" d="M119 586v215l217 84q31 10 51 10q16 0 35 -6l356 -123q10 -4 29 -4q12 0 35 6l245 94v-215l-217 -84q-31 -10 -51 -10q-16 0 -35 6l-356 123q-10 4 -29 4q-14 0 -34 -6z" />
<glyph unicode="&#xa1;" horiz-adv-x="581" d="M135 0v973h309v-973h-309zM135 1186v119q0 49 23.5 70.5t81.5 21.5h100q57 0 80.5 -21.5t23.5 -70.5v-119q0 -49 -24.5 -71.5t-79.5 -22.5h-100q-55 0 -80 22.5t-25 71.5z" />
<glyph unicode="&#xa2;" horiz-adv-x="1501" d="M96 610v150q0 270 114 375.5t421 105.5h147v156h219v-156h435v-260h-435v-592h437v-258h-437v-131h-219v131h-147q-305 0 -420 105.5t-115 373.5zM401 618q0 -133 48.5 -181t189.5 -48h139v592h-139q-143 0 -190.5 -47t-47.5 -184v-132z" />
<glyph unicode="&#xa3;" horiz-adv-x="1726" d="M51 0v260h182v658q0 268 115 373.5t424 105.5h315v-260h-315q-125 0 -175 -50.5t-50 -168.5v-101h1085v-237h-1085v-320h1093v-260h-1589z" />
<glyph unicode="&#xa4;" horiz-adv-x="1482" d="M61 133l310 309v504l-310 307l119 119l307 -309h502l307 309l125 -119l-313 -307v-504l311 -309l-123 -121l-307 314h-502l-309 -316zM547 500h385v387h-385v-387z" />
<glyph unicode="&#xa5;" horiz-adv-x="1789" d="M10 1397h379l508 -500l520 500h361l-707 -668h490v-201h-521v-139h521v-201h-521v-188h-299v188h-512v201h512v139h-512v201h482z" />
<glyph unicode="&#xa6;" horiz-adv-x="542" d="M168 -451v932h205v-932h-205zM168 819v932h205v-932h-205z" />
<glyph unicode="&#xa7;" horiz-adv-x="1505" d="M82 -221h811q113 0 157 39t44 151v125h-557q-260 0 -357.5 90t-97.5 318v487q0 227 97 317.5t358 90.5h438v-230h-428q-117 0 -159 -41t-42 -149v-127h557q262 0 359.5 -89t97.5 -319v-483q0 -229 -98.5 -319.5t-358.5 -90.5h-821v230zM346 512q0 -115 41 -151.5 t160 -36.5h547v108q0 109 -44 150t-157 41h-547v-111z" />
<glyph unicode="&#xa8;" horiz-adv-x="1069" d="M117 1288v92q0 53 23.5 76t82.5 23h94q57 0 81 -22.5t24 -76.5v-108q0 -53 -23.5 -75.5t-81.5 -22.5h-94q-63 0 -84.5 25.5t-21.5 88.5zM645 1272v108q0 53 23.5 76t81.5 23h94q57 0 80.5 -22.5t23.5 -76.5v-108q0 -53 -23.5 -75.5t-80.5 -22.5h-94q-57 0 -81 22.5 t-24 75.5z" />
<glyph unicode="&#xa9;" horiz-adv-x="1777" d="M111 479v439q0 268 113.5 373.5t418.5 105.5h490q305 0 419.5 -105.5t114.5 -373.5v-439q0 -268 -114.5 -373.5t-419.5 -105.5h-490q-305 0 -418.5 105.5t-113.5 373.5zM254 479q0 -195 79 -264.5t310 -69.5h490q231 0 311 70t80 264v439q0 193 -80 263t-311 70h-490 q-229 0 -309 -70.5t-80 -262.5v-439zM512 614v205q0 125 55.5 176.5t198.5 51.5h453v-121h-443q-76 0 -99.5 -22.5t-23.5 -90.5v-192q0 -68 24.5 -90.5t98.5 -22.5h443v-121h-453q-143 0 -198.5 50t-55.5 177z" />
<glyph unicode="&#xaa;" horiz-adv-x="1077" d="M111 776v60q0 82 47 120.5t170 38.5h422v17q0 39 -15.5 53t-54.5 14h-170v146h170q147 0 211.5 -54.5t64.5 -175.5v-143q0 -135 -59 -186.5t-223 -51.5h-334q-127 0 -178 41t-51 121zM317 799q0 -43 48 -43h305q43 0 61.5 16t18.5 62v40h-388q-45 0 -45 -49v-26z" />
<glyph unicode="&#xab;" horiz-adv-x="1183" d="M39 670q0 104 86 170l399 301v-277l-268 -196l268 -199v-272l-399 299q-86 65 -86 174zM631 670q0 104 86 170l399 301v-277l-268 -196l268 -199v-272l-399 299q-86 65 -86 174z" />
<glyph unicode="&#xac;" horiz-adv-x="1181" d="M80 645v207h981v-852h-209v645h-772z" />
<glyph unicode="&#xad;" horiz-adv-x="811" d="M68 532v242h675v-242h-675z" />
<glyph unicode="&#xae;" horiz-adv-x="1777" d="M109 479v439q0 268 114.5 373.5t419.5 105.5h490q305 0 419.5 -105.5t114.5 -373.5v-439q0 -268 -114.5 -373.5t-419.5 -105.5h-490q-305 0 -419.5 105.5t-114.5 373.5zM254 479q0 -195 79 -264.5t310 -69.5h490q231 0 310 70t79 264v439q0 193 -80 262t-309 69h-490 q-229 0 -309 -69.5t-80 -261.5v-439zM514 389v658h512q143 0 202.5 -41t59.5 -156v-45q0 -55 -17.5 -91t-42 -56.5t-81.5 -30t-106.5 -11.5t-147.5 -2l401 -225h-243l-400 238v-238h-137zM651 719h363q80 0 106.5 16.5t26.5 71.5v35q0 53 -25.5 67.5t-107.5 14.5h-363v-205z " />
<glyph unicode="&#xaf;" horiz-adv-x="1323" d="M121 1348v217h1081v-217h-1081z" />
<glyph unicode="&#xb0;" horiz-adv-x="921" d="M68 963v147q0 160 67.5 223.5t251.5 63.5h150q182 0 250.5 -63.5t68.5 -223.5v-147q0 -160 -67.5 -222.5t-251.5 -62.5h-150q-184 0 -251.5 62.5t-67.5 222.5zM266 971q0 -74 25.5 -98.5t103.5 -24.5h133q78 0 103.5 24.5t25.5 98.5v131q0 76 -24.5 98.5t-104.5 22.5 h-133q-80 0 -104.5 -23.5t-24.5 -97.5v-131z" />
<glyph unicode="&#xb1;" horiz-adv-x="1208" d="M121 -33v201h966v-201h-966zM121 623v200h383v383h201v-383h382v-200h-382v-383h-201v383h-383z" />
<glyph unicode="&#xb2;" horiz-adv-x="1009" d="M78 719v237q0 102 49 145.5t176 43.5h393q31 0 42.5 10t11.5 39v12q0 29 -11.5 39t-40.5 10h-243v162h264q111 0 159 -46t48 -154v-39q0 -100 -45 -139.5t-164 -39.5h-400q-35 0 -49 -12t-14 -43v-63h672v-162h-848z" />
<glyph unicode="&#xb3;" horiz-adv-x="995" d="M74 719v155h606q61 0 61 44v30q0 29 -13 40t-46 11h-604v140h596q57 0 57 47v33q0 43 -65 43h-215v155h223q131 0 184 -40t53 -130v-49q0 -96 -67 -123q78 -29 78 -141v-55q0 -86 -53.5 -123t-182.5 -37h-612z" />
<glyph unicode="&#xb4;" horiz-adv-x="819" d="M121 1255l256 447h321l-325 -447h-252z" />
<glyph unicode="&#xb5;" horiz-adv-x="1699" d="M121 -332v1442h305v-850h608q139 0 189.5 46t50.5 181v623h305v-631q0 -268 -114.5 -373.5t-422.5 -105.5h-616v-332h-305z" />
<glyph unicode="&#xb6;" horiz-adv-x="1789" d="M55 948v125q0 221 94.5 308t348.5 87h1171v-1800h-262v1575h-391v-1575h-264v885h-254q-254 0 -348.5 87t-94.5 308zM317 954q0 -104 39 -141t150 -37h246v467h-248q-111 0 -149 -37t-38 -141v-111z" />
<glyph unicode="&#xb7;" horiz-adv-x="552" d="M121 584v168q0 49 24.5 70.5t79.5 21.5h101q57 0 81.5 -21.5t24.5 -70.5v-168q0 -49 -24.5 -70.5t-81.5 -21.5h-101q-57 0 -80.5 21.5t-23.5 70.5z" />
<glyph unicode="&#xb8;" horiz-adv-x="563" d="M121 -451l45 398h276l-110 -398h-211z" />
<glyph unicode="&#xb9;" horiz-adv-x="370" d="M88 719v698h193v-698h-193z" />
<glyph unicode="&#xba;" horiz-adv-x="1044" d="M121 879v82q0 147 63.5 205.5t233.5 58.5h209q172 0 235.5 -58.5t63.5 -205.5v-82q0 -147 -63.5 -206t-235.5 -59h-209q-170 0 -233.5 59t-63.5 206zM328 887q0 -57 22.5 -76.5t87.5 -19.5h168q66 0 89.5 19t23.5 77v63q0 57 -23.5 78t-89.5 21h-168q-66 0 -88 -19.5 t-22 -79.5v-63z" />
<glyph unicode="&#xbb;" horiz-adv-x="1183" d="M39 197v272l268 199l-268 196v277l399 -301q86 -66 86 -170q0 -109 -86 -174zM631 197v272l268 199l-268 196v277l399 -301q86 -66 86 -170q0 -109 -86 -174z" />
<glyph unicode="&#xbc;" horiz-adv-x="1912" d="M111 0l981 1397h237l-981 -1397h-237zM215 719v698h193v-698h-193zM936 162v516h188v-352h494v352h188v-698h-188v182h-682z" />
<glyph unicode="&#xbd;" horiz-adv-x="1720" d="M111 0l981 1397h237l-981 -1397h-237zM215 719v698h193v-698h-193zM766 -20v237q0 102 49 145.5t176 43.5h393q31 0 42.5 10t11.5 39v12q0 29 -11.5 39t-40.5 10h-243v162h264q111 0 159 -46t48 -155v-39q0 -100 -45 -139t-164 -39h-399q-35 0 -49.5 -12t-14.5 -43v-64 h672v-161h-848z" />
<glyph unicode="&#xbe;" horiz-adv-x="2279" d="M106 719v155h607q61 0 61 44v30q0 29 -13 40t-46 11h-604v140h596q57 0 57 47v33q0 43 -66 43h-215v155h224q131 0 184 -40t53 -130v-49q0 -96 -67 -123q78 -29 77 -141v-55q0 -86 -53 -123t-182 -37h-613zM498 0l981 1397h237l-981 -1397h-237zM1303 162v516h188v-352 h494v352h188v-698h-188v182h-682z" />
<glyph unicode="&#xbf;" horiz-adv-x="1218" d="M61 389v78q0 193 81 272.5t300 79.5h283q51 0 70.5 21.5t19.5 72.5v60h303v-86q0 -158 -76.5 -225.5t-269.5 -67.5h-299q-66 0 -96.5 -29.5t-30.5 -105.5v-58q0 -78 32 -108.5t105 -30.5h308v-262h-328q-213 0 -307.5 90t-94.5 299zM807 1186v119q0 49 24.5 70.5 t81.5 21.5h101q57 0 80.5 -21.5t23.5 -70.5v-119q0 -49 -24.5 -71.5t-79.5 -22.5h-101q-57 0 -81.5 22.5t-24.5 71.5z" />
<glyph unicode="&#xc0;" horiz-adv-x="2119" d="M16 0l811 1290q41 68 94.5 102.5t141.5 34.5q86 0 139 -34.5t94 -102.5l807 -1290h-360l-203 322h-967l-198 -322h-359zM668 1989h319l258 -447h-254zM719 561h676l-338 551z" />
<glyph unicode="&#xc1;" horiz-adv-x="2119" d="M16 0l811 1290q41 68 94.5 102.5t141.5 34.5q86 0 139 -34.5t94 -102.5l807 -1290h-360l-203 322h-967l-198 -322h-359zM719 561h676l-338 551zM872 1542l256 447h322l-326 -447h-252z" />
<glyph unicode="&#xc2;" horiz-adv-x="2119" d="M16 0l811 1290q41 68 94.5 102.5t141.5 34.5q86 0 139 -34.5t94 -102.5l807 -1290h-360l-203 322h-967l-198 -322h-359zM532 1462l347 461q63 84 182 84q113 0 178 -84l348 -461h-301l-231 312l-228 -312h-295zM719 561h676l-338 551z" />
<glyph unicode="&#xc3;" horiz-adv-x="2119" d="M16 0l811 1290q41 68 94.5 102.5t141.5 34.5q86 0 139 -34.5t94 -102.5l807 -1290h-360l-203 322h-967l-198 -322h-359zM518 1634v217h1081v-217h-1081zM719 561h676l-338 551z" />
<glyph unicode="&#xc4;" horiz-adv-x="2119" d="M16 0l811 1290q41 68 94.5 102.5t141.5 34.5q86 0 139 -34.5t94 -102.5l807 -1290h-360l-203 322h-967l-198 -322h-359zM643 1575v92q0 53 23.5 75.5t83.5 22.5h94q57 0 80.5 -22.5t23.5 -75.5v-108q0 -53 -23.5 -76t-80.5 -23h-94q-63 0 -85 26t-22 89zM719 561h676 l-338 551zM1171 1559v108q0 53 24 75.5t81 22.5h94q57 0 81 -22.5t24 -75.5v-108q0 -53 -24 -76t-81 -23h-94q-57 0 -81 23t-24 76z" />
<glyph unicode="&#xc5;" horiz-adv-x="2119" d="M16 0l811 1290q41 68 94.5 102.5t141.5 34.5q86 0 139 -34.5t94 -102.5l807 -1290h-360l-203 322h-967l-198 -322h-359zM709 1671v115q0 123 53 172t196 49h203q143 0 196.5 -49t53.5 -172v-115q0 -125 -53 -173t-197 -48h-203q-143 0 -196 48t-53 173zM719 561h676 l-338 551zM854 1675q0 -57 23.5 -77.5t85.5 -20.5h194q57 0 81 21.5t24 76.5v105q0 57 -22.5 77.5t-82.5 20.5h-194q-59 0 -84 -21.5t-25 -76.5v-105z" />
<glyph unicode="&#xc6;" horiz-adv-x="2762" d="M16 0l795 1262q41 66 94 100.5t139 34.5h1037v-264h-561v-316h1153v-237h-1153v-156q0 -94 43 -129t170 -35h950v-260h-950q-256 0 -370 69.5t-138 252.5h-639l-195 -322h-375zM729 561h481v567h-131z" />
<glyph unicode="&#xc7;" horiz-adv-x="1691" d="M111 479v439q0 268 113.5 373.5t418.5 105.5h969v-269h-955q-141 0 -189 -48t-48 -179v-409q0 -131 48 -178.5t191 -47.5h953v-266h-969q-305 0 -418.5 105.5t-113.5 373.5zM725 -451l45 398h277l-111 -398h-211z" />
<glyph unicode="&#xc8;" horiz-adv-x="1697" d="M111 479v439q0 268 113.5 373.5t418.5 105.5h344v-264h-344q-133 0 -178 -46.5t-45 -168.5v-95h1190v-248h-1190v-98q0 -127 44 -170t179 -43h975v-264h-975q-305 0 -418.5 105.5t-113.5 373.5zM457 1989h319l258 -447h-254z" />
<glyph unicode="&#xc9;" horiz-adv-x="1697" d="M111 479v439q0 268 113.5 373.5t418.5 105.5h344v-264h-344q-133 0 -178 -46.5t-45 -168.5v-95h1190v-248h-1190v-98q0 -127 44 -170t179 -43h975v-264h-975q-305 0 -418.5 105.5t-113.5 373.5zM662 1542l256 447h321l-326 -447h-251z" />
<glyph unicode="&#xca;" horiz-adv-x="1697" d="M111 479v439q0 268 113.5 373.5t418.5 105.5h344v-264h-344q-133 0 -178 -46.5t-45 -168.5v-95h1190v-248h-1190v-98q0 -127 44 -170t179 -43h975v-264h-975q-305 0 -418.5 105.5t-113.5 373.5zM383 1462l346 461q63 84 182 84q113 0 179 -84l348 -461h-301l-232 312 l-227 -312h-295z" />
<glyph unicode="&#xcb;" horiz-adv-x="1697" d="M111 479v439q0 268 113.5 373.5t418.5 105.5h344v-264h-344q-133 0 -178 -46.5t-45 -168.5v-95h1190v-248h-1190v-98q0 -127 44 -170t179 -43h975v-264h-975q-305 0 -418.5 105.5t-113.5 373.5zM494 1575v92q0 53 23.5 75.5t82.5 22.5h94q57 0 81 -22.5t24 -75.5v-108 q0 -53 -23.5 -76t-81.5 -23h-94q-63 0 -84.5 26t-21.5 89zM1022 1559v108q0 53 23.5 75.5t80.5 22.5h95q57 0 80.5 -22.5t23.5 -75.5v-108q0 -53 -23.5 -76t-80.5 -23h-95q-57 0 -80.5 23t-23.5 76z" />
<glyph unicode="&#xcc;" horiz-adv-x="559" d="M-111 1989h320l258 -447h-254zM123 0v1397h311v-1397h-311z" />
<glyph unicode="&#xcd;" horiz-adv-x="559" d="M94 1542l256 447h322l-326 -447h-252zM123 0v1397h311v-1397h-311z" />
<glyph unicode="&#xce;" horiz-adv-x="559" d="M-248 1462l346 461q63 84 183 84q113 0 178 -84l348 -461h-301l-232 312l-227 -312h-295zM123 0v1397h311v-1397h-311z" />
<glyph unicode="&#xcf;" horiz-adv-x="559" d="M-135 1575v92q0 53 23.5 75.5t82.5 22.5h95q57 0 80.5 -22.5t23.5 -75.5v-108q0 -53 -23.5 -76t-80.5 -23h-95q-63 0 -84.5 26t-21.5 89zM123 0v1397h311v-1397h-311zM393 1559v108q0 53 23.5 75.5t81.5 22.5h94q57 0 80.5 -22.5t23.5 -75.5v-108q0 -53 -23.5 -76 t-80.5 -23h-94q-57 0 -81 23t-24 76z" />
<glyph unicode="&#xd0;" horiz-adv-x="1927" d="M8 580v237h166v580h1106q307 0 422 -105.5t115 -373.5v-439q0 -268 -115 -373.5t-422 -105.5h-1106v580h-166zM485 258h783q129 0 183 48t54 179v424q0 131 -50 179.5t-187 48.5h-783v-326h576v-225h-576v-328z" />
<glyph unicode="&#xd1;" horiz-adv-x="1867" d="M119 0v1298q0 63 45 96t121 33q94 0 145 -51l1026 -989v1010h295v-1299q0 -129 -156 -129q-102 0 -170 66l-1017 958v-993h-289zM393 1634v217h1082v-217h-1082z" />
<glyph unicode="&#xd2;" d="M111 479v439q0 268 113.5 373.5t418.5 105.5h531q305 0 419.5 -105.5t114.5 -373.5v-439q0 -268 -114.5 -373.5t-419.5 -105.5h-531q-305 0 -418.5 105.5t-113.5 373.5zM420 492q0 -137 45 -181.5t192 -44.5h504q139 0 187.5 45t48.5 181v411q0 131 -49.5 178t-186.5 47 h-504q-145 0 -191 -46t-46 -179v-411zM518 1989h320l258 -447h-254z" />
<glyph unicode="&#xd3;" d="M111 479v439q0 268 113.5 373.5t418.5 105.5h531q305 0 419.5 -105.5t114.5 -373.5v-439q0 -268 -114.5 -373.5t-419.5 -105.5h-531q-305 0 -418.5 105.5t-113.5 373.5zM420 492q0 -137 45 -181.5t192 -44.5h504q139 0 187.5 45t48.5 181v411q0 131 -49.5 178t-186.5 47 h-504q-145 0 -191 -46t-46 -179v-411zM723 1542l256 447h321l-325 -447h-252z" />
<glyph unicode="&#xd4;" d="M111 479v439q0 268 113.5 373.5t418.5 105.5h531q305 0 419.5 -105.5t114.5 -373.5v-439q0 -268 -114.5 -373.5t-419.5 -105.5h-531q-305 0 -418.5 105.5t-113.5 373.5zM381 1462l346 461q63 84 182 84q113 0 178 -84l349 -461h-301l-232 312l-227 -312h-295zM420 492 q0 -137 45 -181.5t192 -44.5h504q139 0 187.5 45t48.5 181v411q0 131 -49.5 178t-186.5 47h-504q-145 0 -191 -46t-46 -179v-411z" />
<glyph unicode="&#xd5;" d="M111 479v439q0 268 113.5 373.5t418.5 105.5h531q305 0 419.5 -105.5t114.5 -373.5v-439q0 -268 -114.5 -373.5t-419.5 -105.5h-531q-305 0 -418.5 105.5t-113.5 373.5zM369 1634v217h1081v-217h-1081zM420 492q0 -137 45 -181.5t192 -44.5h504q139 0 187.5 45t48.5 181 v411q0 131 -49.5 178t-186.5 47h-504q-145 0 -191 -46t-46 -179v-411z" />
<glyph unicode="&#xd6;" d="M111 479v439q0 268 113.5 373.5t418.5 105.5h531q305 0 419.5 -105.5t114.5 -373.5v-439q0 -268 -114.5 -373.5t-419.5 -105.5h-531q-305 0 -418.5 105.5t-113.5 373.5zM420 492q0 -137 45 -181.5t192 -44.5h504q139 0 187.5 45t48.5 181v411q0 131 -49.5 178t-186.5 47 h-504q-145 0 -191 -46t-46 -179v-411zM494 1575v92q0 53 23.5 75.5t82.5 22.5h94q57 0 81 -22.5t24 -75.5v-108q0 -53 -23.5 -76t-81.5 -23h-94q-63 0 -84.5 26t-21.5 89zM1022 1559v108q0 53 23.5 75.5t80.5 22.5h95q57 0 80.5 -22.5t23.5 -75.5v-108q0 -53 -23.5 -76 t-80.5 -23h-95q-57 0 -80.5 23t-23.5 76z" />
<glyph unicode="&#xd7;" horiz-adv-x="1208" d="M190 453l273 270l-273 270l144 144l270 -273l270 273l144 -144l-273 -270l273 -270l-144 -144l-270 273l-270 -273z" />
<glyph unicode="&#xd8;" d="M109 -188l180 247q-98 51 -138 150.5t-40 269.5v439q0 268 113.5 373.5t418.5 105.5h531q14 0 41.5 -1t39.5 -1l140 190h313l-180 -250q98 -49 139 -149.5t41 -267.5v-439q0 -268 -114.5 -373.5t-419.5 -105.5h-531q-57 0 -84 2l-137 -190h-313zM420 492q0 -143 49 -185 l594 821h-406q-145 0 -191 -46t-46 -179v-411zM752 266h409q139 0 187.5 45t48.5 181v411q0 133 -54 180z" />
<glyph unicode="&#xd9;" d="M115 479v918h313v-908q0 -127 54.5 -175t195.5 -48h469q141 0 195.5 48t54.5 178v905h309v-918q0 -268 -114.5 -373.5t-420.5 -105.5h-524q-305 0 -418.5 105.5t-113.5 373.5zM518 1989h320l258 -447h-254z" />
<glyph unicode="&#xda;" d="M115 479v918h313v-908q0 -127 54.5 -175t195.5 -48h469q141 0 195.5 48t54.5 178v905h309v-918q0 -268 -114.5 -373.5t-420.5 -105.5h-524q-305 0 -418.5 105.5t-113.5 373.5zM723 1542l256 447h321l-325 -447h-252z" />
<glyph unicode="&#xdb;" d="M115 479v918h313v-908q0 -127 54.5 -175t195.5 -48h469q141 0 195.5 48t54.5 178v905h309v-918q0 -268 -114.5 -373.5t-420.5 -105.5h-524q-305 0 -418.5 105.5t-113.5 373.5zM381 1462l346 461q63 84 182 84q113 0 178 -84l349 -461h-301l-232 312l-227 -312h-295z" />
<glyph unicode="&#xdc;" d="M115 479v918h313v-908q0 -127 54.5 -175t195.5 -48h469q141 0 195.5 48t54.5 178v905h309v-918q0 -268 -114.5 -373.5t-420.5 -105.5h-524q-305 0 -418.5 105.5t-113.5 373.5zM494 1575v92q0 53 23.5 75.5t82.5 22.5h94q57 0 81 -22.5t24 -75.5v-108q0 -53 -23.5 -76 t-81.5 -23h-94q-63 0 -84.5 26t-21.5 89zM1022 1559v108q0 53 23.5 75.5t80.5 22.5h95q57 0 80.5 -22.5t23.5 -75.5v-108q0 -53 -23.5 -76t-80.5 -23h-95q-57 0 -80.5 23t-23.5 76z" />
<glyph unicode="&#xdd;" horiz-adv-x="1972" d="M8 1397h420l563 -498l574 498h397l-823 -742v-655h-312v659zM799 1542l256 447h321l-325 -447h-252z" />
<glyph unicode="&#xde;" horiz-adv-x="1826" d="M121 0v1397h311v-205h797q313 0 423.5 -89t110.5 -347v-117q0 -258 -110.5 -347t-423.5 -89h-797v-203h-311zM432 453h791q141 0 185 38.5t44 159.5v88q0 123 -44 162t-185 39h-791v-487z" />
<glyph unicode="&#xdf;" horiz-adv-x="1939" d="M121 0v1157q0 172 84 241.5t268 69.5h344q178 0 252 -68.5t74 -242.5v-147q0 -63 74 -64h188q258 0 354 -79t96 -304v-117q0 -242 -112.5 -344t-419.5 -102h-616v258h618q133 0 180 42t47 146v119q0 86 -35.5 122t-109.5 36h-297q-252 0 -252 217v197q0 57 -23.5 80.5 t-74.5 23.5h-236q-53 0 -75.5 -22.5t-22.5 -81.5v-1137h-305z" />
<glyph unicode="&#xe0;" horiz-adv-x="1716" d="M94 293v104q0 150 83 221.5t302 71.5h821v25q0 102 -41.5 140t-146.5 38h-303v217h303q262 0 378 -97.5t116 -312.5v-270q0 -244 -106.5 -337t-399.5 -93h-600q-227 0 -316.5 74t-89.5 219zM397 313q0 -104 125 -104h574q113 0 158.5 40t45.5 159v94h-788 q-57 0 -86 -24.5t-29 -88.5v-76zM528 1702h320l258 -447h-254z" />
<glyph unicode="&#xe1;" horiz-adv-x="1716" d="M94 293v104q0 150 83 221.5t302 71.5h821v25q0 102 -41.5 140t-146.5 38h-303v217h303q262 0 378 -97.5t116 -312.5v-270q0 -244 -106.5 -337t-399.5 -93h-600q-227 0 -316.5 74t-89.5 219zM397 313q0 -104 125 -104h574q113 0 158.5 40t45.5 159v94h-788 q-57 0 -86 -24.5t-29 -88.5v-76zM733 1255l256 447h322l-326 -447h-252z" />
<glyph unicode="&#xe2;" horiz-adv-x="1716" d="M94 293v104q0 150 83 221.5t302 71.5h821v25q0 102 -41.5 140t-146.5 38h-303v217h303q262 0 378 -97.5t116 -312.5v-270q0 -244 -106.5 -337t-399.5 -93h-600q-227 0 -316.5 74t-89.5 219zM391 1176l346 460q63 84 183 84q113 0 178 -84l348 -460h-301l-232 311 l-227 -311h-295zM397 313q0 -104 125 -104h574q113 0 158.5 40t45.5 159v94h-788q-57 0 -86 -24.5t-29 -88.5v-76z" />
<glyph unicode="&#xe3;" horiz-adv-x="1716" d="M94 293v104q0 150 83 221.5t302 71.5h821v25q0 102 -41.5 140t-146.5 38h-303v217h303q262 0 378 -97.5t116 -312.5v-270q0 -244 -106.5 -337t-399.5 -93h-600q-227 0 -316.5 74t-89.5 219zM379 1348v217h1081v-217h-1081zM397 313q0 -104 125 -104h574q113 0 158.5 40 t45.5 159v94h-788q-57 0 -86 -24.5t-29 -88.5v-76z" />
<glyph unicode="&#xe4;" horiz-adv-x="1716" d="M94 293v104q0 150 83 221.5t302 71.5h821v25q0 102 -41.5 140t-146.5 38h-303v217h303q262 0 378 -97.5t116 -312.5v-270q0 -244 -106.5 -337t-399.5 -93h-600q-227 0 -316.5 74t-89.5 219zM397 313q0 -104 125 -104h574q113 0 158.5 40t45.5 159v94h-788 q-57 0 -86 -24.5t-29 -88.5v-76zM504 1288v92q0 53 23.5 76t82.5 23h95q57 0 80.5 -22.5t23.5 -76.5v-108q0 -53 -23.5 -75.5t-80.5 -22.5h-95q-63 0 -84.5 25.5t-21.5 88.5zM1032 1272v108q0 53 23.5 76t81.5 23h94q57 0 80.5 -22.5t23.5 -76.5v-108q0 -53 -23.5 -75.5 t-80.5 -22.5h-94q-57 0 -81 22.5t-24 75.5z" />
<glyph unicode="&#xe5;" horiz-adv-x="1716" d="M94 293v104q0 150 83 221.5t302 71.5h821v25q0 102 -41.5 140t-146.5 38h-303v217h303q262 0 378 -97.5t116 -312.5v-270q0 -244 -106.5 -337t-399.5 -93h-600q-227 0 -316.5 74t-89.5 219zM397 313q0 -104 125 -104h574q113 0 158.5 40t45.5 159v94h-788 q-57 0 -86 -24.5t-29 -88.5v-76zM567 1384v115q0 123 53.5 172t196.5 49h203q143 0 196.5 -49t53.5 -172v-115q0 -125 -53.5 -173t-196.5 -48h-203q-143 0 -196.5 48t-53.5 173zM713 1389q0 -57 23.5 -78t84.5 -21h195q57 0 80.5 21.5t23.5 77.5v104q0 57 -22.5 77.5 t-81.5 20.5h-195q-59 0 -83.5 -21.5t-24.5 -76.5v-104z" />
<glyph unicode="&#xe6;" horiz-adv-x="2807" d="M94 293v104q0 150 83 221.5t302 71.5h801v25q0 102 -42 140t-144 38h-291v217h291q217 0 331 -72q111 72 359 72h518q223 0 314 -79t91 -224v-365h-1122v-51q0 -98 37 -129t150 -31h346v-231h-346q-225 0 -332 70q-106 -70 -359 -70h-581q-227 0 -316.5 74t-89.5 219z M397 313q0 -104 125 -104h553q113 0 159 40t46 159v94h-768q-57 0 -86 -24.5t-29 -88.5v-76zM1585 639h817v143q0 53 -26.5 72.5t-98.5 19.5h-487q-123 0 -164 -30.5t-41 -145.5v-59z" />
<glyph unicode="&#xe7;" horiz-adv-x="1548" d="M111 479v150q0 270 113.5 375.5t418.5 105.5h803v-262h-793q-143 0 -190 -46t-47 -184v-131q0 -133 48 -181t189 -48h795v-258h-805q-305 0 -418.5 105.5t-113.5 373.5zM633 -451l45 398h276l-110 -398h-211z" />
<glyph unicode="&#xe8;" horiz-adv-x="1656" d="M111 422v256q0 246 106.5 339t396.5 93h537q223 0 314 -79t91 -224v-365h-1140v-51q0 -98 36.5 -129t147.5 -31h361v-231h-361q-262 0 -375.5 99.5t-113.5 322.5zM416 639h835v143q0 53 -26.5 72.5t-98.5 19.5h-508q-123 0 -162.5 -30.5t-39.5 -145.5v-59zM436 1702h320 l258 -447h-254z" />
<glyph unicode="&#xe9;" horiz-adv-x="1656" d="M111 422v256q0 246 106.5 339t396.5 93h537q223 0 314 -79t91 -224v-365h-1140v-51q0 -98 36.5 -129t147.5 -31h361v-231h-361q-262 0 -375.5 99.5t-113.5 322.5zM416 639h835v143q0 53 -26.5 72.5t-98.5 19.5h-508q-123 0 -162.5 -30.5t-39.5 -145.5v-59zM641 1255 l256 447h322l-326 -447h-252z" />
<glyph unicode="&#xea;" horiz-adv-x="1656" d="M111 422v256q0 246 106.5 339t396.5 93h537q223 0 314 -79t91 -224v-365h-1140v-51q0 -98 36.5 -129t147.5 -31h361v-231h-361q-262 0 -375.5 99.5t-113.5 322.5zM301 1176l346 460q63 84 182 84q113 0 179 -84l348 -460h-301l-232 311l-227 -311h-295zM416 639h835v143 q0 53 -26.5 72.5t-98.5 19.5h-508q-123 0 -162.5 -30.5t-39.5 -145.5v-59z" />
<glyph unicode="&#xeb;" horiz-adv-x="1656" d="M111 422v256q0 246 106.5 339t396.5 93h537q223 0 314 -79t91 -224v-365h-1140v-51q0 -98 36.5 -129t147.5 -31h361v-231h-361q-262 0 -375.5 99.5t-113.5 322.5zM412 1288v92q0 53 23.5 76t82.5 23h94q57 0 81 -22.5t24 -76.5v-108q0 -53 -23.5 -75.5t-81.5 -22.5h-94 q-63 0 -84.5 25.5t-21.5 88.5zM416 639h835v143q0 53 -26.5 72.5t-98.5 19.5h-508q-123 0 -162.5 -30.5t-39.5 -145.5v-59zM940 1272v108q0 53 23.5 76t80.5 23h95q57 0 80.5 -22.5t23.5 -76.5v-108q0 -53 -23.5 -75.5t-80.5 -22.5h-95q-57 0 -80.5 22.5t-23.5 75.5z" />
<glyph unicode="&#xec;" horiz-adv-x="552" d="M-115 1702h320l258 -447h-254zM121 0v1081h311v-1081h-311z" />
<glyph unicode="&#xed;" horiz-adv-x="552" d="M90 1255l256 447h322l-326 -447h-252zM121 0v1081h311v-1081h-311z" />
<glyph unicode="&#xee;" horiz-adv-x="843" d="M-104 1176l346 460q63 84 182 84q113 0 178 -84l348 -460h-301l-231 311l-228 -311h-294zM266 0v1081h312v-1081h-312z" />
<glyph unicode="&#xef;" horiz-adv-x="643" d="M-94 1288v92q0 53 23.5 76t82.5 23h94q57 0 81 -22.5t24 -76.5v-108q0 -53 -23.5 -75.5t-81.5 -22.5h-94q-63 0 -84.5 25.5t-21.5 88.5zM166 0v1081h311v-1081h-311zM434 1272v108q0 53 23.5 76t81.5 23h94q57 0 80.5 -22.5t23.5 -76.5v-108q0 -53 -23.5 -75.5 t-80.5 -22.5h-94q-57 0 -81 22.5t-24 75.5z" />
<glyph unicode="&#xf0;" horiz-adv-x="1685" d="M113 473v64q0 250 114.5 351t417.5 101h619v250h-783v229h875l133 152h305l-225 -264v-877q0 -268 -115 -373.5t-420 -105.5h-389q-305 0 -418.5 102.5t-113.5 370.5zM418 487q0 -139 49 -187t188 -48h369q133 0 186.5 50t53.5 181v267h-609q-139 0 -188 -47.5 t-49 -180.5v-35z" />
<glyph unicode="&#xf1;" horiz-adv-x="1667" d="M115 0v629q0 270 113.5 375.5t418.5 105.5h371q307 0 420.5 -105.5t113.5 -375.5v-629h-305v618q0 137 -50 183.5t-198 46.5h-331q-145 0 -196.5 -46t-51.5 -184v-618h-305zM293 1348v217h1081v-217h-1081z" />
<glyph unicode="&#xf2;" horiz-adv-x="1658" d="M111 479v150q0 270 113.5 375.5t418.5 105.5h371q307 0 420.5 -106.5t113.5 -376.5v-148q0 -268 -114.5 -373.5t-419.5 -105.5h-371q-305 0 -418.5 105.5t-113.5 373.5zM416 487q0 -139 53 -184t215 -45h289q166 0 218 45t52 184v131q0 141 -52 185.5t-218 44.5h-289 q-164 0 -216 -44t-52 -186v-131zM438 1702h320l258 -447h-254z" />
<glyph unicode="&#xf3;" horiz-adv-x="1658" d="M111 479v150q0 270 113.5 375.5t418.5 105.5h371q307 0 420.5 -106.5t113.5 -376.5v-148q0 -268 -114.5 -373.5t-419.5 -105.5h-371q-305 0 -418.5 105.5t-113.5 373.5zM416 487q0 -139 53 -184t215 -45h289q166 0 218 45t52 184v131q0 141 -52 185.5t-218 44.5h-289 q-164 0 -216 -44t-52 -186v-131zM643 1255l256 447h322l-326 -447h-252z" />
<glyph unicode="&#xf4;" horiz-adv-x="1658" d="M111 479v150q0 270 113.5 375.5t418.5 105.5h371q307 0 420.5 -106.5t113.5 -376.5v-148q0 -268 -114.5 -373.5t-419.5 -105.5h-371q-305 0 -418.5 105.5t-113.5 373.5zM301 1176l346 460q63 84 182 84q113 0 179 -84l348 -460h-301l-232 311l-227 -311h-295zM416 487 q0 -139 53 -184t215 -45h289q166 0 218 45t52 184v131q0 141 -52 185.5t-218 44.5h-289q-164 0 -216 -44t-52 -186v-131z" />
<glyph unicode="&#xf5;" horiz-adv-x="1658" d="M111 479v150q0 270 113.5 375.5t418.5 105.5h371q307 0 420.5 -106.5t113.5 -376.5v-148q0 -268 -114.5 -373.5t-419.5 -105.5h-371q-305 0 -418.5 105.5t-113.5 373.5zM289 1348v217h1081v-217h-1081zM416 487q0 -139 53 -184t215 -45h289q166 0 218 45t52 184v131 q0 141 -52 185.5t-218 44.5h-289q-164 0 -216 -44t-52 -186v-131z" />
<glyph unicode="&#xf6;" horiz-adv-x="1658" d="M111 479v150q0 270 113.5 375.5t418.5 105.5h371q307 0 420.5 -106.5t113.5 -376.5v-148q0 -268 -114.5 -373.5t-419.5 -105.5h-371q-305 0 -418.5 105.5t-113.5 373.5zM414 1288v92q0 53 23.5 76t82.5 23h94q57 0 81 -22.5t24 -76.5v-108q0 -53 -23.5 -75.5t-81.5 -22.5 h-94q-63 0 -84.5 25.5t-21.5 88.5zM416 487q0 -139 53 -184t215 -45h289q166 0 218 45t52 184v131q0 141 -52 185.5t-218 44.5h-289q-164 0 -216 -44t-52 -186v-131zM942 1272v108q0 53 23.5 76t81.5 23h94q57 0 80.5 -22.5t23.5 -76.5v-108q0 -53 -23.5 -75.5t-80.5 -22.5 h-94q-57 0 -81 22.5t-24 75.5z" />
<glyph unicode="&#xf7;" horiz-adv-x="1208" d="M121 623v200h966v-200h-966zM449 260v168q0 49 24.5 70.5t79.5 21.5h100q57 0 82 -21.5t25 -70.5v-168q0 -49 -24.5 -70.5t-82.5 -21.5h-100q-57 0 -80.5 21.5t-23.5 70.5zM449 1018v168q0 49 24.5 70.5t79.5 21.5h100q57 0 82 -21.5t25 -70.5v-168q0 -49 -24.5 -70.5 t-82.5 -21.5h-100q-57 0 -80.5 21.5t-23.5 70.5z" />
<glyph unicode="&#xf8;" horiz-adv-x="1658" d="M109 -188l186 245q-100 49 -142 150.5t-42 271.5v150q0 270 113.5 375.5t418.5 105.5h371q14 0 39.5 -1t38.5 -1l143 190h311l-186 -245q102 -49 145 -150.5t43 -275.5v-148q0 -268 -114.5 -373.5t-419.5 -105.5h-371q-53 0 -78 2l-143 -190h-313zM416 487 q0 -145 61 -190l416 551h-209q-164 0 -216 -44t-52 -186v-131zM758 258h215q166 0 218 45t52 184v131q0 154 -65 195z" />
<glyph unicode="&#xf9;" horiz-adv-x="1658" d="M115 479v631h307v-623q0 -137 53 -182t197 -45h319q152 0 201 44t49 183v623h303v-631q0 -268 -114.5 -373.5t-421.5 -105.5h-361q-305 0 -418.5 105.5t-113.5 373.5zM438 1702h320l258 -447h-254z" />
<glyph unicode="&#xfa;" horiz-adv-x="1658" d="M115 479v631h307v-623q0 -137 53 -182t197 -45h319q152 0 201 44t49 183v623h303v-631q0 -268 -114.5 -373.5t-421.5 -105.5h-361q-305 0 -418.5 105.5t-113.5 373.5zM643 1255l256 447h322l-326 -447h-252z" />
<glyph unicode="&#xfb;" horiz-adv-x="1658" d="M115 479v631h307v-623q0 -137 53 -182t197 -45h319q152 0 201 44t49 183v623h303v-631q0 -268 -114.5 -373.5t-421.5 -105.5h-361q-305 0 -418.5 105.5t-113.5 373.5zM301 1176l346 460q63 84 182 84q113 0 179 -84l348 -460h-301l-232 311l-227 -311h-295z" />
<glyph unicode="&#xfc;" horiz-adv-x="1658" d="M115 479v631h307v-623q0 -137 53 -182t197 -45h319q152 0 201 44t49 183v623h303v-631q0 -268 -114.5 -373.5t-421.5 -105.5h-361q-305 0 -418.5 105.5t-113.5 373.5zM414 1288v92q0 53 23.5 76t82.5 23h94q57 0 81 -22.5t24 -76.5v-108q0 -53 -23.5 -75.5t-81.5 -22.5 h-94q-63 0 -84.5 25.5t-21.5 88.5zM942 1272v108q0 53 23.5 76t81.5 23h94q57 0 80.5 -22.5t23.5 -76.5v-108q0 -53 -23.5 -75.5t-80.5 -22.5h-94q-57 0 -81 22.5t-24 75.5z" />
<glyph unicode="&#xfd;" horiz-adv-x="1695" d="M119 520v590h301v-578q0 -90 40 -126.5t134 -36.5h682v741h297v-1090q0 -186 -93.5 -269t-299.5 -83h-445v250h418q66 0 94.5 25.5t28.5 93.5v90h-701q-246 0 -351 94t-105 299zM662 1255l256 447h321l-326 -447h-251z" />
<glyph unicode="&#xfe;" horiz-adv-x="1687" d="M121 -332v1800h311v-358h610q307 0 421 -105.5t114 -375.5v-150q0 -268 -114.5 -373.5t-420.5 -105.5h-610v-332h-311zM432 258h602q141 0 189.5 46t48.5 183v131q0 135 -48 182.5t-190 47.5h-602v-590z" />
<glyph unicode="&#xff;" horiz-adv-x="1695" d="M119 520v590h301v-578q0 -90 40 -126.5t134 -36.5h682v741h297v-1090q0 -186 -93.5 -269t-299.5 -83h-445v250h418q66 0 94.5 25.5t28.5 93.5v90h-701q-246 0 -351 94t-105 299zM432 1288v92q0 53 23.5 76t83.5 23h94q57 0 80.5 -22.5t23.5 -76.5v-108q0 -53 -23.5 -75.5 t-80.5 -22.5h-94q-63 0 -85 25.5t-22 88.5zM961 1272v108q0 53 23.5 76t80.5 23h94q57 0 81 -22.5t24 -76.5v-108q0 -53 -23.5 -75.5t-81.5 -22.5h-94q-57 0 -80.5 22.5t-23.5 75.5z" />
<glyph unicode="&#x152;" horiz-adv-x="2945" d="M111 479v439q0 268 113.5 373.5t418.5 105.5h510q264 0 381 -82q115 82 379 82h330v-264h-330q-129 0 -176 -43t-47 -156v-111h1167v-248h-1167v-114q0 -117 45 -157t178 -40h952v-264h-952q-268 0 -379 80q-115 -80 -381 -80h-510q-305 0 -418.5 105.5t-113.5 373.5z M420 492q0 -137 45 -181.5t192 -44.5h484q139 0 188 45t49 181v411q0 131 -50 178t-187 47h-484q-145 0 -191 -46t-46 -179v-411z" />
<glyph unicode="&#x153;" horiz-adv-x="2750" d="M111 479v150q0 270 113.5 375.5t418.5 105.5h350q254 0 371 -76q109 76 365 76h516q223 0 314 -79t91 -224v-365h-1122v-51q0 -98 37 -129t149 -31h346v-231h-346q-233 0 -342 78q-115 -78 -379 -78h-350q-305 0 -418.5 105.5t-113.5 373.5zM416 487q0 -139 53 -184 t215 -45h270q164 0 217.5 45t53.5 184v131q0 141 -52.5 185.5t-218.5 44.5h-270q-164 0 -216 -44t-52 -186v-131zM1528 639h819v143q0 53 -27.5 72.5t-99.5 19.5h-487q-123 0 -164 -30.5t-41 -145.5v-59z" />
<glyph unicode="&#x178;" horiz-adv-x="1972" d="M8 1397h420l563 -498l574 498h397l-823 -742v-655h-312v659zM569 1575v92q0 53 23.5 75.5t83.5 22.5h94q57 0 80.5 -22.5t23.5 -75.5v-108q0 -53 -23.5 -76t-80.5 -23h-94q-63 0 -85 26t-22 89zM1098 1559v108q0 53 23.5 75.5t80.5 22.5h94q57 0 81 -22.5t24 -75.5v-108 q0 -53 -23.5 -76t-81.5 -23h-94q-57 0 -80.5 23t-23.5 76z" />
<glyph unicode="&#x2c6;" horiz-adv-x="1296" d="M121 1176l346 460q63 84 182 84q113 0 178 -84l349 -460h-302l-231 311l-227 -311h-295z" />
<glyph unicode="&#x2dc;" horiz-adv-x="1323" d="M121 1348v217h1081v-217h-1081z" />
<glyph unicode="&#x3bc;" horiz-adv-x="1699" d="M121 -332v1442h305v-850h608q139 0 189.5 46t50.5 181v623h305v-631q0 -268 -114.5 -373.5t-422.5 -105.5h-616v-332h-305z" />
<glyph unicode="&#x2013;" horiz-adv-x="1431" d="M68 532v242h1298v-242h-1298z" />
<glyph unicode="&#x2014;" horiz-adv-x="1961" d="M68 532v242h1828v-242h-1828z" />
<glyph unicode="&#x2018;" horiz-adv-x="466" d="M84 1473h285l47 -502h-215z" />
<glyph unicode="&#x2019;" horiz-adv-x="466" d="M84 971l47 502h285l-117 -502h-215z" />
<glyph unicode="&#x201a;" horiz-adv-x="466" d="M84 -150l47 500h285l-117 -500h-215z" />
<glyph unicode="&#x201c;" horiz-adv-x="933" d="M84 1473h285l47 -502h-215zM551 1473h285l47 -502h-215z" />
<glyph unicode="&#x201d;" horiz-adv-x="933" d="M84 971l47 502h285l-117 -502h-215zM551 971l47 502h285l-117 -502h-215z" />
<glyph unicode="&#x201e;" horiz-adv-x="933" d="M84 -150l47 500h285l-117 -500h-215zM551 -150l47 500h285l-117 -500h-215z" />
<glyph unicode="&#x2022;" horiz-adv-x="788" d="M121 582v213q0 90 57.5 144t147.5 54h139q203 0 203 -196v-215q0 -90 -55.5 -141.5t-147.5 -51.5h-139q-94 0 -149.5 51.5t-55.5 141.5z" />
<glyph unicode="&#x2026;" horiz-adv-x="2764" d="M121 92v168q0 49 24.5 70.5t79.5 21.5h101q57 0 81.5 -21.5t24.5 -70.5v-168q0 -49 -24.5 -70.5t-81.5 -21.5h-101q-57 0 -80.5 21.5t-23.5 70.5zM1227 92v168q0 49 24.5 70.5t79.5 21.5h101q57 0 81.5 -21.5t24.5 -70.5v-168q0 -49 -24.5 -70.5t-81.5 -21.5h-101 q-57 0 -80.5 21.5t-23.5 70.5zM2333 92v168q0 49 24.5 70.5t79.5 21.5h100q57 0 82 -21.5t25 -70.5v-168q0 -49 -24.5 -70.5t-82.5 -21.5h-100q-57 0 -80.5 21.5t-23.5 70.5z" />
<glyph unicode="&#x2039;" horiz-adv-x="591" d="M39 670q0 104 86 170l399 301v-277l-268 -196l268 -199v-272l-399 299q-86 65 -86 174z" />
<glyph unicode="&#x203a;" horiz-adv-x="591" d="M39 197v272l268 199l-268 196v277l399 -301q86 -66 86 -170q0 -109 -86 -174z" />
<glyph unicode="&#x20ac;" horiz-adv-x="1699" d="M20 467l48 174h145v113h-193l48 174h145q4 260 118.5 364.5t416.5 104.5h899l-109 -262h-784q-141 0 -186.5 -42t-47.5 -165h938l-74 -174h-868v-113h825l-71 -174h-752q4 -127 48 -168t188 -41h886v-258h-892q-301 0 -416 104.5t-119 362.5h-193z" />
<glyph unicode="&#x2122;" horiz-adv-x="2547" d="M66 1223v174h854v-174h-330v-699h-199v699h-325zM1044 524v811q0 39 32 60.5t77 21.5q59 0 94 -43l490 -641l489 639q37 45 90 45q45 0 77 -21.5t32 -60.5v-811h-182v561l-420 -542q-31 -39 -90 -39q-57 0 -88 39l-418 542v-561h-183z" />
<glyph unicode="&#xe000;" horiz-adv-x="1110" d="M0 1110h1110v-1110h-1110v1110z" />
<glyph unicode="&#xfb01;" horiz-adv-x="1439" d="M121 0v1169q0 164 86 231.5t270 67.5h354v-217h-307q-57 0 -77.5 -19.5t-20.5 -72.5v-49h403v-248h-403v-862h-305zM1008 0v1081h311v-1081h-311zM1008 1268v118q0 49 23.5 71t80.5 22h100q57 0 82 -21.5t25 -71.5v-118q0 -49 -24.5 -71.5t-82.5 -22.5h-100 q-55 0 -79.5 22.5t-24.5 71.5z" />
<glyph unicode="&#xfb02;" horiz-adv-x="1439" d="M121 0v1169q0 164 86 231.5t270 67.5h354v-217h-307q-57 0 -77.5 -19.5t-20.5 -72.5v-49h403v-248h-403v-862h-305zM1008 0v1468h311v-1468h-311z" />
<glyph unicode="&#xfb03;" horiz-adv-x="2326" d="M1895 0v1081h311v-1081h-311zM1895 1268v118q0 49 23.5 71t80.5 22h101q57 0 81.5 -21.5t24.5 -71.5v-118q0 -49 -24.5 -71.5t-81.5 -22.5h-101q-55 0 -79.5 22.5t-24.5 71.5zM1008 0v1169q0 164 86 231.5t270 67.5h354v-217h-307q-57 0 -77.5 -19.5t-20.5 -72.5v-49h403 v-248h-403v-862h-305zM121 0v1169q0 164 86 231.5t270 67.5h354v-217h-307q-57 0 -77.5 -19.5t-20.5 -72.5v-49h403v-248h-403v-862h-305z" />
<glyph unicode="&#xfb04;" horiz-adv-x="2326" d="M1895 0v1468h311v-1468h-311zM1008 0v1169q0 164 86 231.5t270 67.5h354v-217h-307q-57 0 -77.5 -19.5t-20.5 -72.5v-49h403v-248h-403v-862h-305zM121 0v1169q0 164 86 231.5t270 67.5h354v-217h-307q-57 0 -77.5 -19.5t-20.5 -72.5v-49h403v-248h-403v-862h-305z" />
</font>
</defs>
</svg>
